<svg version="1.1" id="Layer_1" xmlns="http://www.w3.org/2000/svg" xmlns:xlink="http://www.w3.org/1999/xlink" x="0px" y="0px"
	width="266" height="65" viewBox="0 0 55 55" enable-background="new 0 0 55 55" xml:space="preserve">
<path fill="#AA5500" opacity="1.000000" stroke="none" 
	d="
M0.999999,44.000000 
	C1.000000,33.979103 1.000000,23.958210 1.341365,13.614954 
	C3.567351,11.249624 5.453557,9.208116 7.336148,7.163278 
	C9.225975,5.110579 11.112198,3.054563 13.000000,1.000000 
	C23.020895,1.000000 33.041790,1.000000 43.385086,1.341354 
	C47.474987,5.735696 51.242489,9.788685 54.615105,13.928413 
	C51.795311,14.682342 49.396240,15.782752 46.940281,15.929219 
	C41.311504,16.264906 35.654964,16.135044 29.638119,16.125298 
	C27.131365,18.017962 27.346436,19.613710 30.448963,20.903404 
	C31.385332,20.985096 31.882061,20.996246 32.378822,20.997890 
	C38.995525,21.019806 38.996662,21.019476 38.999184,27.385546 
	C39.001068,32.151264 38.999554,36.916981 38.999554,41.682701 
	C39.501434,41.946247 40.003315,42.209793 40.505199,42.473339 
	C41.337112,41.356754 42.840755,40.267860 42.888107,39.118942 
	C43.131584,33.211498 43.000942,27.288637 43.000942,21.456020 
	C47.648872,20.935408 51.824436,20.467703 56.000000,20.000000 
	C56.000000,27.687576 56.000000,35.375153 55.658630,43.385086 
	C53.432621,45.750393 51.546391,47.791874 49.663799,49.836712 
	C47.773983,51.889408 45.887787,53.945435 44.000000,56.000000 
	C33.979103,56.000000 23.958210,56.000000 13.614906,55.658630 
	C11.249571,53.432610 9.208127,51.546345 7.163298,49.663750 
	C5.110620,47.773930 3.054570,45.887768 0.999999,44.000000 
M18.470901,41.999573 
	C20.913668,41.999573 23.356434,41.999573 26.074541,41.999573 
	C25.930553,40.010796 25.829502,38.615082 25.712666,37.001308 
	C20.882467,37.001308 16.394209,37.203831 11.944293,36.879799 
	C10.581984,36.780598 8.292265,35.334576 8.197899,34.337704 
	C7.784095,29.966339 8.019575,25.533510 8.019575,20.868168 
	C14.351248,20.868168 19.968908,20.868168 25.770832,20.868168 
	C25.770832,19.200520 25.770832,17.810129 25.770832,16.024090 
	C20.103077,16.024090 14.631792,15.781879 9.194523,16.107565 
	C5.446450,16.332069 2.698795,18.092379 2.954939,22.652905 
	C3.169194,26.467638 2.978200,30.304108 3.004354,34.130695 
	C3.035641,38.708515 5.879319,41.719498 10.524229,41.975910 
	C12.846514,42.104103 15.181670,41.999100 18.470901,41.999573 
z"/>
<path fill="#FFFFFF" opacity="1.000000" stroke="none" 
	d="
M30.009697,16.194206 
	C35.654964,16.135044 41.311504,16.264906 46.940281,15.929219 
	C49.396240,15.782752 51.795311,14.682342 54.857330,14.001560 
	C55.662960,13.991978 55.831478,13.995989 56.000000,14.000000 
	C56.000000,15.714358 56.000000,17.428717 56.000000,19.571537 
	C51.824436,20.467703 47.648872,20.935408 43.000942,21.456020 
	C43.000942,27.288637 43.131584,33.211498 42.888107,39.118942 
	C42.840755,40.267860 41.337112,41.356754 40.505199,42.473339 
	C40.003315,42.209793 39.501434,41.946247 38.999554,41.682701 
	C38.999554,36.916981 39.001068,32.151264 38.999184,27.385546 
	C38.996662,21.019476 38.995525,21.019806 32.378822,20.997890 
	C31.882061,20.996246 31.385332,20.985096 30.446674,20.517227 
	C30.006405,18.768795 30.008051,17.481501 30.009697,16.194206 
z"/>
<path fill="#000000" opacity="1.000000" stroke="none" 
	d="
M56.000000,13.523338 
	C55.831478,13.995989 55.662960,13.991978 55.252216,13.914821 
	C51.242489,9.788685 47.474987,5.735696 43.853745,1.341354 
	C47.925987,1.000000 51.851978,1.000000 56.000000,1.000000 
	C56.000000,5.013897 56.000000,9.030287 56.000000,13.523338 
z"/>
<path fill="#000000" opacity="1.000000" stroke="none" 
	d="
M12.520824,1.000000 
	C11.112198,3.054563 9.225975,5.110579 7.336148,7.163278 
	C5.453557,9.208116 3.567351,11.249624 1.341365,13.146297 
	C1.000000,9.078017 1.000000,5.156034 1.000000,1.000000 
	C4.678595,1.000000 8.360122,1.000000 12.520824,1.000000 
z"/>
<path fill="#000000" opacity="1.000000" stroke="none" 
	d="
M0.999999,44.479176 
	C3.054570,45.887768 5.110620,47.773930 7.163298,49.663750 
	C9.208127,51.546345 11.249571,53.432610 13.146250,55.658630 
	C9.078017,56.000000 5.156034,56.000000 1.000000,56.000000 
	C1.000000,52.321404 1.000000,48.639877 0.999999,44.479176 
z"/>
<path fill="#000000" opacity="1.000000" stroke="none" 
	d="
M44.479176,56.000000 
	C45.887787,53.945435 47.773983,51.889408 49.663799,49.836712 
	C51.546391,47.791874 53.432621,45.750393 55.658630,43.853722 
	C56.000000,47.921982 56.000000,51.843967 56.000000,56.000000 
	C52.321404,56.000000 48.639877,56.000000 44.479176,56.000000 
z"/>
<path fill="#FFFEFE" opacity="1.000000" stroke="none" 
	d="
M17.990953,41.999573 
	C15.181670,41.999100 12.846514,42.104103 10.524229,41.975910 
	C5.879319,41.719498 3.035641,38.708515 3.004354,34.130695 
	C2.978200,30.304108 3.169194,26.467638 2.954939,22.652905 
	C2.698795,18.092379 5.446450,16.332069 9.194523,16.107565 
	C14.631792,15.781879 20.103077,16.024090 25.770832,16.024090 
	C25.770832,17.810129 25.770832,19.200520 25.770832,20.868168 
	C19.968908,20.868168 14.351248,20.868168 8.019575,20.868168 
	C8.019575,25.533510 7.784095,29.966339 8.197899,34.337704 
	C8.292265,35.334576 10.581984,36.780598 11.944293,36.879799 
	C16.394209,37.203831 20.882467,37.001308 25.712666,37.001308 
	C25.829502,38.615082 25.930553,40.010796 26.074541,41.999573 
	C23.356434,41.999573 20.913668,41.999573 17.990953,41.999573 
z"/>
<path fill="#FBF8F5" opacity="1.000000" stroke="none" 
	d="
M29.638119,16.125298 
	C30.008051,17.481501 30.006405,18.768795 30.007046,20.442265 
	C27.346436,19.613710 27.131365,18.017962 29.638119,16.125298 
z"/>
</svg>